<?xml version="1.0" encoding="UTF-8"?>
<svg width="755px" height="755px" viewBox="0 0 755 755" version="1.1" xmlns="http://www.w3.org/2000/svg" xmlns:xlink="http://www.w3.org/1999/xlink">
    <title>Group 2</title>
    <g id="Fitness-Template-Assets" stroke="none" stroke-width="1" fill="none" fill-rule="evenodd">
        <g id="Group-2">
            <rect id="Rectangle" fill="#E8F1F3" x="0" y="0" width="755" height="755"></rect>
            <circle id="Oval" fill="#F1F6F7" cx="376.5" cy="380.5" r="236.5"></circle>
            <g id="Health-and-fitness-goals-illustration1" transform="translate(275.000000, 99.000000)" fill-rule="nonzero">
                <path d="M98.5692428,0.074775761 C84.317138,-1.20177392 75.4383581,14.1423533 70.1929695,24.9930256 C62.7982508,40.3116218 55.3267704,52.2090649 40.6652694,61.7065945 C33.1682017,66.5574833 25.3129124,70.5913803 17.6367338,75.1103662 C12.5192815,78.0719615 1.36323536,83.6121871 0.1350468,90.0715285 C-1.63047426,99.3903412 14.3871516,91.3991402 20.6048562,103.373176 C26.8225608,115.347212 60.5209845,111.364377 60.5209845,111.364377 L58.7298762,104.036982 C57.5784494,99.3648102 58.0901947,96.5564009 62.5935527,94.1820185 L87.1317368,81.2633357 C90.488009,79.0929461 94.0858651,77.3193938 97.8527994,75.97842 C101.332667,75.0848352 104.966058,75.97842 108.4971,75.6465171 C111.852954,75.5364634 114.903989,73.6749648 116.531501,70.7445663 C125.69174,56.4216788 123.209776,35.358609 120.599875,19.529393 C118.552894,7.09579903 110.902303,1.35132545 98.5692428,0.074775761 Z" id="Path" fill="#2D2F53"></path>
                <path d="M82,71.7010207 C82,71.7010207 89.9508184,49.0306223 89.6205928,39.3831083 C89.3156445,34.5935071 89.3156445,29.7896012 89.6205928,25 L107.630594,25 C107.630594,25 103.642483,62.0283174 107.630594,71.7010207 C111.618704,81.3737241 82,71.7010207 82,71.7010207 Z" id="Path" fill="#F6CDAE"></path>
                <path d="M89.0971673,32.4511458 C91.4182251,34.3581285 94.2191646,35.5531694 97.1758829,35.8979878 C100.149017,36.2400274 103.15613,35.7179766 105.853022,34.3915902 C106.351708,28.5191928 107,24 107,24 L89.2218388,24 C88.9761366,26.8100099 88.9344649,29.6348188 89.0971673,32.4511458 L89.0971673,32.4511458 Z" id="Path" fill="#BF9686"></path>
                <circle id="Oval" fill="#F6CDAE" cx="98.5" cy="19.5" r="16.5"></circle>
                <path d="M101,4.89515752 C101,4.89515752 83.2241978,25.2619943 79.1079722,23.9381499 C74.9917466,22.6143055 83.6699037,7.56830484 83.6699037,7.56830484 L94.1571027,2.68026403 L101,1 L101,4.89515752 Z" id="Path" fill="#2D2F53"></path>
                <path d="M98.547366,3.56438356 C98.547366,3.56438356 114.082009,19 116.947113,19 C119.812216,19 115.921984,9.70410959 115.921984,9.70410959 L106.774681,2.70136986 L101.885606,1 L94,1 L98.547366,3.56438356 Z" id="Path" fill="#2D2F53"></path>
                <circle id="Oval" fill="#F6CDAE" cx="82.5" cy="22.5" r="2.5"></circle>
                <path d="M140.924823,191.200541 L137.496396,178.218378 C137.496396,178.218378 165,169.275676 165,154.337297 C165,139.398919 155.197238,79.4421622 134.525092,67.5016216 C113.852947,55.5610811 106.310407,59.88 106.310407,59.88 C102.803867,62.6718397 98.0600874,63.3428338 93.9172778,61.632973 C90.6521919,60.1068624 87.2511905,58.8905424 83.7589753,58 C83.7589753,58 41.2972705,73.7005405 29.7929929,106.524324 C18.2887152,139.348108 13.7428748,178.218378 27.4819791,181.216216 C41.2210833,184.214054 45.7923194,181.216216 45.7923194,181.216216 L75.6323332,199 L140.924823,191.200541 Z" id="Path" fill="#CCF0F2"></path>
                <polygon id="Path" fill="#F6CDAE" points="121 509 121 548 141.557096 548 152 509"></polygon>
                <polygon id="Path" fill="#2D2F53" points="121.195884 531.76412 116 554 181 554 144.603087 531"></polygon>
                <polygon id="Path" fill="#F6CDAE" points="54 513 54 552 74.5570962 552 85 513"></polygon>
                <polygon id="Path" fill="#2D2F53" points="55.1159478 536.764967 50 559 114 559 78.1630392 536"></polygon>
                <path d="M42.8263307,175 C42.8263307,175 5.94526301,213.482397 22.0871153,322.537079 C38.2289677,431.59176 52.0465976,515 52.0465976,515 L88.9276653,515 L95.8492507,230.597004 L105.043977,290.370787 C109.130522,316.857678 115.132634,343.166292 116.511843,370.009738 C117.53348,389.671161 116.511843,409.638202 116.511843,429.350562 L116.511843,515 L151.170852,515 C153.520616,514.847191 164.452123,457.722097 165.729168,452.042697 C174.898354,411.879401 179.393553,372.021723 175.715662,330.890637 C172.678175,301.074558 167.747397,271.48058 160.953019,242.286891 C158.909747,232.940075 152.294652,177.903371 137.327681,179.278652 C114.289785,181.417978 67.0391092,184.626966 42.8263307,175 Z" id="Path" fill="#3ECEDD"></path>
                <polygon id="Path" fill="#53B2BC" points="105 279 95 243.408016 95.7038835 201"></polygon>
                <path d="M142,190.280163 C139.64232,185.26141 137.233938,181.898328 134.800204,180.656575 C111.983951,182.984862 65.0331719,186.503163 41,176 C40.9493489,176 78.2158961,216.227633 142,190.280163 Z" id="Path" fill="#53B2BC"></path>
                <polygon id="Path" fill="#423966" points="64.1083744 94 53 117.094629 73 124 57.679803 114.690537"></polygon>
                <path d="M155.99599,159.788305 C156.28436,185.533902 140.997495,208.90522 117.29383,218.958091 C93.5901649,229.010962 66.162283,223.755231 47.8539352,205.652018 C29.5455873,187.548805 23.9812537,160.181979 33.7665643,136.366701 C43.5518749,112.551423 66.7496443,97.0023722 92.4969716,97 C127.358895,96.8318934 155.772204,124.926847 155.99599,159.788305 Z" id="Path" fill="#2D2F53"></path>
                <path d="M92.4358612,214 C78.0254481,214.04029 64.1865657,208.449549 53.9526089,198.452982 C43.7484222,188.580254 38,175.080365 38,160.989061 C38,146.897757 43.7484222,133.397869 53.9526089,123.525141 C75.3573266,102.824953 109.642673,102.824953 131.047391,123.525141 C141.251578,133.397869 147,146.897757 147,160.989061 C147,175.080365 141.251578,188.580254 131.047391,198.452982 C120.815016,208.451901 106.975101,214.043059 92.5641388,214 L92.4358612,214 Z" id="Path" fill="#FFFFFF"></path>
                <path d="M92.5,203.998909 C80.7386863,204.08099 69.4237981,199.528608 61.0325714,191.338441 C52.6981201,183.239824 48,172.144788 48,160.560845 C48,148.976902 52.6981201,137.881866 61.0325714,129.783248 C78.5052839,112.738917 106.494716,112.738917 123.967429,129.783248 C132.30188,137.881866 137,148.976902 137,160.560845 C137,172.144788 132.30188,183.239824 123.967429,191.338441 C115.574646,199.526251 104.260781,204.078222 92.5,203.998909 Z" id="Path" fill="#2D2F53"></path>
                <path d="M92.0164617,195 C82.7422131,195.044523 73.8298545,191.400141 67.2393942,184.867916 C60.6910245,178.454905 57,169.671147 57,160.500601 C57,151.330055 60.6910245,142.546297 67.2393942,136.133286 C81.0004304,122.622238 103.032493,122.622238 116.793529,136.133286 C123.322484,142.556763 127,151.336605 127,160.500601 C127,169.664597 123.322484,178.444439 116.793529,184.867916 C110.199911,191.395357 101.289619,195.038894 92.0164617,195 L92.0164617,195 Z" id="Path" fill="#FFFFFF"></path>
                <path d="M92.0162389,183 C85.9083552,183.022642 80.0402297,180.6324 75.6965611,176.352403 C71.4142764,172.183024 69,166.468486 69,160.501794 C69,154.535103 71.4142764,148.820565 75.6965611,144.651186 C84.757261,135.782938 99.2752169,135.782938 108.335917,144.651186 C112.59905,148.830846 115,154.541537 115,160.501794 C115,166.462052 112.59905,172.172743 108.335917,176.352403 C103.989155,180.627731 98.1230496,183.01715 92.0162389,183 L92.0162389,183 Z" id="Path" fill="#99E0E5"></path>
                <path d="M189.609992,87.9069302 C191.665871,86.3953704 194.547251,86.8155743 196.090913,88.8520702 L196.090913,88.8520702 C196.821589,89.8356415 197.130636,91.0720226 196.949235,92.2858968 C196.767835,93.4997709 196.111048,94.5903501 195.125129,95.3147846 L107.391255,160.095194 C105.343475,161.604006 102.470161,161.183328 100.93575,159.150054 L100.93575,159.150054 C99.4059673,157.123676 99.7920885,154.235902 101.799872,152.68734 L189.609992,87.9069302 Z" id="Path" fill="#99E0E5"></path>
                <path d="M104.293623,161 C102.638933,160.998004 101.081205,160.216113 100.0868,158.888413 C99.2224165,157.786719 98.8493043,156.375725 99.0555921,154.988706 C99.26188,153.601687 100.029275,152.361639 101.176519,151.561459 L188.658164,87.0181238 C189.549341,86.3470283 190.635941,85.9893813 191.749926,86.0002402 C193.412598,85.9984823 194.979715,86.7803761 195.982091,88.1120787 C196.797915,89.2234369 197.143976,90.6130622 196.945099,91.9790818 C196.757759,93.3708842 196.005698,94.6230546 194.867029,95.439032 L107.410727,159.982368 C106.504217,160.642349 105.413429,160.998455 104.293623,161 Z M191.749926,87.221307 C190.898191,87.2101463 190.067603,87.4880851 189.393091,88.0103154 L101.911446,152.655414 C101.06603,153.266311 100.501018,154.193 100.343702,155.226706 C100.186386,156.260413 100.449998,157.314189 101.07515,158.150629 C101.835607,159.165192 103.028854,159.759419 104.293623,159.753546 C105.152496,159.760827 105.989823,159.483614 106.6758,158.964735 L194.157445,94.3959588 C194.982365,93.7817131 195.536784,92.8692956 195.703326,91.8518778 C195.861915,90.8249985 195.596504,89.7776028 194.968399,88.9516254 C194.221405,87.9146432 193.024687,87.2997692 191.749926,87.2979727 L191.749926,87.221307 Z" id="Shape" fill="#FFFFFF"></path>
                <polygon id="Path" fill="#99E0E5" points="196.032333 96 205 107.996377 173.65127 131 150 129.757246"></polygon>
                <polygon id="Path" fill="#99E0E5" points="188 87.0609756 179.013245 75 147.661148 98.1274945 142 121"></polygon>
                <path d="M164,163 C157.287555,165.77292 149.627169,168.751241 148.423028,169.470146 C142.123327,173.068131 136.943725,178.347767 133.460937,184.721205 C133.035895,185.382759 132.897195,186.188947 133.076637,186.954946 C133.563417,188.110329 135.203098,188.110329 136.432859,187.879253 C145.382654,185.822727 153.865671,182.094705 161.437998,176.890274 C162.462799,172.294416 163.308259,167.647208 164,163 Z" id="Path" fill="#F6CDAE"></path>
                <path d="M54.2808939,184.395181 C49.8928895,178.423388 43.9958795,173.835307 37.2469424,171.142169 C35.6914468,170.479518 24.6244783,168.014458 17,166 C17.5354985,170.13494 17.8414976,174.508434 20.2639907,177.556627 L20.4169903,177.795181 C29.9661903,183.729124 40.7323375,187.226288 51.8329008,188 C53.0823973,188 54.6888927,187.787952 54.9948918,186.542169 C55.0401438,185.756414 54.7833197,184.984145 54.2808939,184.395181 L54.2808939,184.395181 Z" id="Path" fill="#F6CDAE"></path>
            </g>
            <g id="XMLID_983_" transform="translate(129.815166, 499.701422)" fill-rule="nonzero">
                <polygon id="XMLID_1000_" fill="#3ECEDD" points="33.1848341 41.2985782 33.1848341 10.2985782 122.925219 10.2985782 135.184834 25.7823138 122.925219 41.2985782"></polygon>
                <g id="XMLID_984_" transform="translate(0.184834, 0.298578)">
                    <g id="XMLID_997_">
                        <path d="M25.5,51 C11.4343949,51 0,39.5656051 0,25.5 C0,11.4343949 11.4343949,0 25.5,0 C39.5656051,0 51,11.4343949 51,25.5 C51,39.5656051 39.533121,51 25.5,51 Z" id="XMLID_999_" fill="#3ECEDD"></path>
                        <circle id="XMLID_998_" fill="#FFFFFF" cx="25.5" cy="25.5" r="20.4649682"></circle>
                    </g>
                    <g id="XMLID_985_" transform="translate(10.977742, 19.620382)" fill="#474747">
                        <path d="M3.86748103,4.87261146 C4.41971033,4.87261146 4.80951925,4.74267516 5.06939186,4.45031847 C5.32926447,4.15796178 5.45920077,3.76815287 5.45920077,3.24840764 C5.45920077,2.82611465 5.32926447,2.46878981 5.03690778,2.17643312 C4.74455109,1.88407643 4.38722625,1.75414013 3.86748103,1.75414013 C3.44518804,1.75414013 3.08786319,1.88407643 2.79550651,2.14394904 C2.50314982,2.40382166 2.37321351,2.72866242 2.37321351,3.11847134 L0.164296316,3.11847134 L0.164296316,3.08598726 C0.131812239,2.17643312 0.48913708,1.46178344 1.20378676,0.877070064 C1.91843644,0.292356688 2.82799058,0 3.86748103,0 C5.03690778,0 5.978946,0.292356688 6.69359568,0.844585987 C7.37576128,1.39681529 7.73308612,2.2089172 7.73308612,3.24840764 C7.73308612,3.76815287 7.57066574,4.25541401 7.27830905,4.67770701 C6.98595237,5.1 6.56365937,5.45732484 6.04391415,5.71719745 C6.62862753,5.94458599 7.11588867,6.26942675 7.44072944,6.7566879 C7.7655702,7.24394904 7.92799058,7.76369427 7.92799058,8.4133758 C7.92799058,9.45286624 7.53818167,10.2974522 6.79104791,10.8821656 C6.04391415,11.466879 5.06939186,11.7917197 3.86748103,11.7917197 C2.82799058,11.7917197 1.91843644,11.4993631 1.13881861,10.9471338 C0.359200774,10.3949045 -0.0306081428,9.58280255 0.00187593365,8.57579618 L0.00187593365,8.5433121 L2.24327721,8.5433121 C2.24327721,8.9656051 2.40569759,9.32292994 2.69805428,9.61528662 C2.99041097,9.90764331 3.38021988,10.0375796 3.86748103,10.0375796 C4.38722625,10.0375796 4.80951925,9.87515924 5.13436001,9.58280255 C5.45920077,9.25796178 5.62162116,8.86815287 5.62162116,8.4133758 C5.62162116,7.79617834 5.45920077,7.37388535 5.16684409,7.08152866 C4.8744874,6.78917197 4.41971033,6.65923567 3.83499695,6.65923567 L2.56811797,6.65923567 L2.56811797,4.93757962 L3.86748103,4.93757962 L3.86748103,4.87261146 Z" id="XMLID_995_"></path>
                        <path d="M17.023532,7.47133758 C17.023532,8.80318471 16.6662071,9.87515924 15.9515575,10.622293 C15.2369078,11.4019108 14.3273536,11.7592357 13.1579269,11.7592357 C11.9885001,11.7592357 11.0464619,11.3694268 10.3318122,10.622293 C9.61716256,9.84267516 9.25983772,8.80318471 9.25983772,7.47133758 L9.25983772,4.32038217 C9.25983772,2.98853503 9.61716256,1.91656051 10.3318122,1.16942675 C11.0464619,0.389808917 11.9885001,0 13.1254428,0 C14.2948696,0 15.2369078,0.389808917 15.9190734,1.16942675 C16.6337231,1.94904459 16.9910479,2.98853503 16.9910479,4.32038217 L16.9910479,7.47133758 L17.023532,7.47133758 Z M14.7496466,4.09299363 C14.7496466,3.34585987 14.6197103,2.79363057 14.3273536,2.40382166 C14.034997,2.01401274 13.645188,1.7866242 13.1579269,1.7866242 C12.6706657,1.7866242 12.2808568,1.98152866 11.9885001,2.40382166 C11.7286275,2.79363057 11.5662071,3.37834395 11.5662071,4.09299363 L11.5662071,7.69872611 C11.5662071,8.44585987 11.6961434,9.03057325 11.9885001,9.42038217 C12.2808568,9.81019108 12.6706657,10.0050955 13.1579269,10.0050955 C13.645188,10.0050955 14.034997,9.81019108 14.3273536,9.42038217 C14.6197103,9.03057325 14.7496466,8.44585987 14.7496466,7.69872611 L14.7496466,4.09299363 Z" id="XMLID_992_"></path>
                        <path d="M18.5177995,2.37133758 C18.5177995,1.68917197 18.745188,1.13694268 19.167481,0.682165605 C19.589774,0.227388535 20.2069715,0 20.9865893,0 C21.7662071,0 22.3834046,0.227388535 22.8381817,0.682165605 C23.2604747,1.13694268 23.4878632,1.68917197 23.4878632,2.37133758 L23.4878632,2.98853503 C23.4878632,3.67070064 23.2604747,4.22292994 22.8381817,4.67770701 C22.4158887,5.13248408 21.7986912,5.35987261 21.0190734,5.35987261 C20.2394556,5.35987261 19.6222581,5.13248408 19.167481,4.67770701 C18.712704,4.22292994 18.5177995,3.67070064 18.5177995,2.98853503 L18.5177995,2.37133758 Z M20.0445511,2.98853503 C20.0445511,3.28089172 20.1420033,3.54076433 20.3044237,3.76815287 C20.4668441,3.96305732 20.7267167,4.09299363 21.0190734,4.09299363 C21.3114301,4.09299363 21.5713027,3.9955414 21.7337231,3.76815287 C21.8961434,3.57324841 21.9935957,3.3133758 21.9935957,2.98853503 L21.9935957,2.37133758 C21.9935957,2.07898089 21.8961434,1.81910828 21.7337231,1.59171975 C21.5713027,1.36433121 21.3439142,1.26687898 21.0190734,1.26687898 C20.6942326,1.26687898 20.4668441,1.36433121 20.3044237,1.59171975 C20.1420033,1.81910828 20.0445511,2.04649682 20.0445511,2.37133758 L20.0445511,2.98853503 Z M21.4088823,10.7522293 L20.3044237,10.1675159 L25.8916849,1.2343949 L26.9961434,1.81910828 L21.4088823,10.7522293 Z M24.0076084,8.80318471 C24.0076084,8.12101911 24.234997,7.56878981 24.6572899,7.11401274 C25.112067,6.65923567 25.6967804,6.43184713 26.4763982,6.43184713 C27.2560161,6.43184713 27.8732135,6.65923567 28.2955065,7.11401274 C28.7177995,7.56878981 28.945188,8.12101911 28.945188,8.80318471 L28.945188,9.42038217 C28.945188,10.1025478 28.7177995,10.6547771 28.2955065,11.1095541 C27.8732135,11.5643312 27.2560161,11.7917197 26.4763982,11.7917197 C25.6967804,11.7917197 25.0795829,11.5643312 24.6248059,11.1095541 C24.1700288,10.6547771 23.9751243,10.1025478 23.9751243,9.42038217 L23.9751243,8.80318471 L24.0076084,8.80318471 Z M25.53436,9.42038217 C25.53436,9.71273885 25.6318122,9.97261146 25.7942326,10.2 C25.9891371,10.4273885 26.2165256,10.5248408 26.5088823,10.5248408 C26.8337231,10.5248408 27.0935957,10.4273885 27.223532,10.2324841 C27.3859524,10.0375796 27.4509205,9.77770701 27.4509205,9.45286624 L27.4509205,8.83566879 C27.4509205,8.5433121 27.3534683,8.28343949 27.1910479,8.05605096 C27.0286275,7.82866242 26.801239,7.73121019 26.4763982,7.73121019 C26.1515575,7.73121019 25.9241689,7.82866242 25.7617485,8.05605096 C25.5993282,8.28343949 25.5018759,8.51082803 25.5018759,8.83566879 L25.5018759,9.42038217 L25.53436,9.42038217 Z" id="XMLID_986_"></path>
                    </g>
                </g>
            </g>
            <g id="XMLID_919_" transform="translate(157.018957, 442.962085)" fill-rule="nonzero">
                <polygon id="XMLID_982_" fill="#F57178" points="32.9810427 41.0379147 32.9810427 10.0379147 134.714185 10.0379147 146.981043 25.5379147 134.714185 41.0379147"></polygon>
                <g id="XMLID_920_" transform="translate(-0.018957, 0.037915)">
                    <g id="XMLID_979_">
                        <path d="M26,51 C11.6585987,51 0,39.5656051 0,25.5 C0,11.4343949 11.6585987,0 26,0 C40.3414013,0 52,11.4343949 52,25.5 C52,39.5656051 40.3082803,51 26,51 Z" id="XMLID_981_" fill="#F57178"></path>
                        <ellipse id="XMLID_980_" fill="#FFFFFF" cx="26" cy="25.5" rx="20.866242" ry="20.4649682"></ellipse>
                    </g>
                    <g id="XMLID_921_" transform="translate(11.161783, 19.620382)" fill="#474747">
                        <path d="M4.67006369,0 C5.13375796,0 5.53121019,0.0324840764 5.92866242,0.129936306 C6.32611465,0.194904459 6.69044586,0.324840764 7.08789809,0.487261146 L6.65732484,2.17643312 C6.29299363,2.04649682 5.96178344,1.98152866 5.66369427,1.91656051 C5.3656051,1.85159236 5.0343949,1.81910828 4.67006369,1.81910828 C3.97452229,1.81910828 3.44458599,2.07898089 3.01401274,2.59872611 C2.58343949,3.11847134 2.38471338,3.83312102 2.38471338,4.74267516 L2.38471338,5.1 C2.68280255,4.80764331 3.08025478,4.58025478 3.47770701,4.41783439 C3.90828025,4.25541401 4.37197452,4.15796178 4.90191083,4.15796178 C5.8955414,4.15796178 6.69044586,4.51528662 7.25350318,5.19745223 C7.81656051,5.87961783 8.08152866,6.78917197 8.08152866,7.92611465 C8.08152866,9.06305732 7.71719745,10.0050955 6.98853503,10.7197452 C6.25987261,11.4343949 5.29936306,11.7917197 4.14012739,11.7917197 C2.91464968,11.7917197 1.92101911,11.3694268 1.15923567,10.5573248 C0.397452229,9.74522293 0,8.60828025 0,7.21146497 L0,4.80764331 C0,3.34585987 0.430573248,2.2089172 1.29171975,1.33184713 C2.2522293,0.422292994 3.34522293,0 4.67006369,0 Z M4.17324841,5.87961783 C3.74267516,5.87961783 3.37834395,5.94458599 3.08025478,6.07452229 C2.78216561,6.2044586 2.55031847,6.39936306 2.38471338,6.62675159 L2.38471338,7.24394904 C2.38471338,8.12101911 2.55031847,8.80318471 2.88152866,9.29044586 C3.21273885,9.77770701 3.6433121,10.0050955 4.17324841,10.0050955 C4.67006369,10.0050955 5.0343949,9.81019108 5.33248408,9.42038217 C5.63057325,9.03057325 5.76305732,8.51082803 5.76305732,7.89363057 C5.76305732,7.27643312 5.63057325,6.7566879 5.33248408,6.39936306 C5.06751592,6.04203822 4.67006369,5.87961783 4.17324841,5.87961783 Z" id="XMLID_976_"></path>
                        <path d="M17.388535,7.47133758 C17.388535,8.80318471 17.0242038,9.87515924 16.2955414,10.622293 C15.566879,11.4019108 14.6394904,11.7592357 13.4471338,11.7592357 C12.2547771,11.7592357 11.2942675,11.3694268 10.5656051,10.622293 C9.83694268,9.84267516 9.47261146,8.80318471 9.47261146,7.47133758 L9.47261146,4.32038217 C9.47261146,2.98853503 9.83694268,1.91656051 10.5656051,1.16942675 C11.2942675,0.389808917 12.2547771,0 13.4140127,0 C14.6063694,0 15.566879,0.389808917 16.2624204,1.16942675 C16.9910828,1.94904459 17.355414,2.98853503 17.355414,4.32038217 L17.355414,7.47133758 L17.388535,7.47133758 Z M15.0700637,4.06050955 C15.0700637,3.3133758 14.9375796,2.7611465 14.6394904,2.37133758 C14.3414013,1.98152866 13.943949,1.75414013 13.4471338,1.75414013 C12.9503185,1.75414013 12.5528662,1.94904459 12.2547771,2.37133758 C11.9898089,2.7611465 11.8242038,3.34585987 11.8242038,4.06050955 L11.8242038,7.66624204 C11.8242038,8.4133758 11.9566879,8.99808917 12.2547771,9.38789809 C12.5528662,9.77770701 12.9503185,9.97261146 13.4471338,9.97261146 C13.943949,9.97261146 14.3414013,9.77770701 14.6394904,9.38789809 C14.9375796,8.99808917 15.0700637,8.4133758 15.0700637,7.66624204 L15.0700637,4.06050955 Z" id="XMLID_928_"></path>
                        <path d="M18.9121019,2.37133758 C18.9121019,1.68917197 19.143949,1.13694268 19.5745223,0.682165605 C20.0050955,0.227388535 20.6343949,0 21.4292994,0 C22.2242038,0 22.8535032,0.227388535 23.3171975,0.682165605 C23.7477707,1.13694268 23.9796178,1.68917197 23.9796178,2.37133758 L23.9796178,2.98853503 C23.9796178,3.67070064 23.7477707,4.22292994 23.3171975,4.67770701 C22.8866242,5.13248408 22.2573248,5.35987261 21.4624204,5.35987261 C20.6675159,5.35987261 20.0382166,5.13248408 19.5745223,4.67770701 C19.110828,4.22292994 18.9121019,3.67070064 18.9121019,2.98853503 L18.9121019,2.37133758 Z M20.4687898,2.95605096 C20.4687898,3.24840764 20.5681529,3.50828025 20.733758,3.73566879 C20.8993631,3.93057325 21.1643312,4.06050955 21.4624204,4.06050955 C21.7605096,4.06050955 22.0254777,3.96305732 22.1910828,3.73566879 C22.3566879,3.54076433 22.456051,3.28089172 22.456051,2.95605096 L22.456051,2.3388535 C22.456051,2.04649682 22.3566879,1.7866242 22.1910828,1.55923567 C22.0254777,1.33184713 21.7936306,1.2343949 21.4624204,1.2343949 C21.1312102,1.2343949 20.8993631,1.33184713 20.733758,1.55923567 C20.5681529,1.7866242 20.4687898,2.01401274 20.4687898,2.3388535 L20.4687898,2.95605096 Z M21.8267516,10.7522293 L20.7006369,10.1675159 L26.3974522,1.2343949 L27.5235669,1.81910828 L21.8267516,10.7522293 Z M24.4764331,8.80318471 C24.4764331,8.12101911 24.7082803,7.56878981 25.1388535,7.11401274 C25.6025478,6.65923567 26.1987261,6.43184713 26.9936306,6.43184713 C27.788535,6.43184713 28.4178344,6.65923567 28.8484076,7.11401274 C29.2789809,7.56878981 29.510828,8.12101911 29.510828,8.80318471 L29.510828,9.42038217 C29.510828,10.1025478 29.2789809,10.6547771 28.8484076,11.1095541 C28.4178344,11.5643312 27.788535,11.7917197 26.9936306,11.7917197 C26.1987261,11.7917197 25.5694268,11.5643312 25.1057325,11.1095541 C24.6420382,10.6547771 24.4433121,10.1025478 24.4433121,9.42038217 L24.4433121,8.80318471 L24.4764331,8.80318471 Z M26.033121,9.38789809 C26.033121,9.68025478 26.1324841,9.94012739 26.2980892,10.1675159 C26.4968153,10.3949045 26.7286624,10.4923567 27.0267516,10.4923567 C27.3579618,10.4923567 27.6229299,10.3949045 27.755414,10.2 C27.9210191,10.0050955 27.9872611,9.74522293 27.9872611,9.42038217 L27.9872611,8.80318471 C27.9872611,8.51082803 27.8878981,8.25095541 27.722293,8.02356688 C27.5566879,7.79617834 27.3248408,7.69872611 26.9936306,7.69872611 C26.6624204,7.69872611 26.4305732,7.79617834 26.2649682,8.02356688 C26.0993631,8.25095541 26,8.47834395 26,8.80318471 L26,9.38789809 L26.033121,9.38789809 Z" id="XMLID_922_"></path>
                    </g>
                </g>
            </g>
            <g id="XMLID_868_" transform="translate(189.663507, 387.000000)" fill-rule="nonzero">
                <polygon id="XMLID_918_" fill="#2E2D78" points="33.3364929 41 33.3364929 10 147.063766 10 159.336493 25.5 147.063766 41"></polygon>
                <g id="XMLID_869_" transform="translate(0.336493, 0.000000)">
                    <g id="XMLID_913_">
                        <path d="M25.5,51 C11.4343949,51 0,39.5583174 0,25.4837476 C0,11.4091778 11.4343949,0 25.5,0 C39.5656051,0 51,11.4416826 51,25.5162524 C51,39.5908222 39.533121,51 25.5,51 Z" id="XMLID_915_" fill="#2E2D78"></path>
                        <ellipse id="XMLID_914_" fill="#FFFFFF" cx="25.5" cy="25.5162524" rx="20.4649682" ry="20.4780115"></ellipse>
                    </g>
                    <g id="XMLID_870_" transform="translate(11.012102, 19.600382)" fill="#474747">
                        <path d="M3.50828025,10.0439771 C4.06050955,10.0439771 4.5477707,9.81644359 4.90509554,9.39388145 C5.26242038,8.97131931 5.45732484,8.38623327 5.45732484,7.60611855 L5.45732484,6.8585086 C5.19745223,7.18355641 4.90509554,7.44359465 4.5477707,7.60611855 C4.19044586,7.76864245 3.83312102,7.86615679 3.41082803,7.86615679 C2.3388535,7.86615679 1.52675159,7.50860421 0.90955414,6.82600382 C0.292356688,6.14340344 0,5.20076482 0,3.99808795 C0,2.86042065 0.357324841,1.88527725 1.07197452,1.1376673 C1.7866242,0.390057361 2.69617834,0 3.83312102,0 C4.97006369,0 5.91210191,0.390057361 6.65923567,1.17017208 C7.37388535,1.95028681 7.76369427,3.02294455 7.76369427,4.38814532 L7.76369427,7.47609943 C7.76369427,8.80879541 7.37388535,9.84894837 6.56178344,10.6290631 C5.78216561,11.4091778 4.74267516,11.7992352 3.54076433,11.7992352 C3.15095541,11.7992352 2.72866242,11.7667304 2.30636943,11.6692161 C1.88407643,11.5717017 1.49426752,11.4741874 1.1044586,11.3116635 L1.49426752,9.65391969 C1.81910828,9.78393881 2.14394904,9.88145315 2.46878981,9.94646272 C2.72866242,10.0114723 3.08598726,10.0439771 3.50828025,10.0439771 Z M3.76815287,6.17590822 C4.12547771,6.17590822 4.48280255,6.11089866 4.74267516,5.94837476 C5.03503185,5.78585086 5.26242038,5.59082218 5.42484076,5.33078394 L5.42484076,3.99808795 C5.42484076,3.28298279 5.26242038,2.73040153 4.97006369,2.34034417 C4.67770701,1.95028681 4.28789809,1.75525813 3.80063694,1.75525813 C3.34585987,1.75525813 2.95605096,1.98279159 2.69617834,2.40535373 C2.40382166,2.82791587 2.27388535,3.34799235 2.27388535,3.96558317 C2.27388535,4.61567878 2.40382166,5.13575526 2.66369427,5.5583174 C2.92356688,5.98087954 3.28089172,6.17590822 3.76815287,6.17590822 Z" id="XMLID_910_"></path>
                        <path d="M17.0216561,7.47609943 C17.0216561,8.80879541 16.6643312,9.88145315 15.9496815,10.6290631 C15.2350318,11.4091778 14.3254777,11.7667304 13.156051,11.7667304 C11.9866242,11.7667304 11.044586,11.376673 10.3299363,10.6290631 C9.61528662,9.84894837 9.25796178,8.80879541 9.25796178,7.47609943 L9.25796178,4.32313576 C9.25796178,2.99043977 9.61528662,1.91778203 10.3299363,1.17017208 C11.044586,0.390057361 11.9866242,0 13.1235669,0 C14.2929936,0 15.2350318,0.390057361 15.9171975,1.17017208 C16.6318471,1.95028681 16.989172,2.99043977 16.989172,4.32313576 L16.989172,7.47609943 L17.0216561,7.47609943 Z M14.7477707,4.09560229 C14.7477707,3.34799235 14.6178344,2.79541109 14.3254777,2.40535373 C14.033121,2.01529637 13.6433121,1.78776291 13.156051,1.78776291 C12.6687898,1.78776291 12.2789809,1.98279159 11.9866242,2.40535373 C11.7267516,2.79541109 11.5643312,3.38049713 11.5643312,4.09560229 L11.5643312,7.70363289 C11.5643312,8.45124283 11.6942675,9.03632887 11.9866242,9.42638623 C12.2789809,9.81644359 12.6687898,10.0114723 13.156051,10.0114723 C13.6433121,10.0114723 14.033121,9.81644359 14.3254777,9.42638623 C14.5853503,9.03632887 14.7477707,8.45124283 14.7477707,7.70363289 L14.7477707,4.09560229 Z" id="XMLID_893_"></path>
                        <path d="M18.5159236,2.37284895 C18.5159236,1.69024857 18.7433121,1.1376673 19.1656051,0.682600382 C19.5878981,0.227533461 20.2050955,0 20.9847134,0 C21.7643312,0 22.3815287,0.227533461 22.8363057,0.682600382 C23.2585987,1.1376673 23.4859873,1.69024857 23.4859873,2.37284895 L23.4859873,2.99043977 C23.4859873,3.67304015 23.2585987,4.22562141 22.8363057,4.68068834 C22.4140127,5.13575526 21.7968153,5.36328872 21.0171975,5.36328872 C20.2375796,5.36328872 19.6203822,5.13575526 19.1656051,4.68068834 C18.710828,4.22562141 18.5159236,3.67304015 18.5159236,2.99043977 L18.5159236,2.37284895 Z M20.0426752,2.99043977 C20.0426752,3.28298279 20.1401274,3.54302103 20.3025478,3.77055449 C20.4649682,3.96558317 20.7248408,4.09560229 21.0171975,4.09560229 C21.3095541,4.09560229 21.5694268,3.99808795 21.7318471,3.77055449 C21.8942675,3.57552581 21.9917197,3.31548757 21.9917197,2.99043977 L21.9917197,2.37284895 C21.9917197,2.08030593 21.8942675,1.82026769 21.7318471,1.59273423 C21.5694268,1.36520076 21.3420382,1.26768642 21.0171975,1.26768642 C20.6923567,1.26768642 20.4649682,1.36520076 20.3025478,1.59273423 C20.1401274,1.82026769 20.0426752,2.04780115 20.0426752,2.37284895 L20.0426752,2.99043977 Z M21.4070064,10.7590822 L20.3025478,10.1739962 L25.8898089,1.23518164 L26.9942675,1.82026769 L21.4070064,10.7590822 Z M24.0057325,8.80879541 C24.0057325,8.12619503 24.233121,7.57361377 24.655414,7.11854685 C25.1101911,6.66347992 25.6949045,6.43594646 26.4745223,6.43594646 C27.2541401,6.43594646 27.8713376,6.66347992 28.2936306,7.11854685 C28.7159236,7.57361377 28.9433121,8.12619503 28.9433121,8.80879541 L28.9433121,9.42638623 C28.9433121,10.1089866 28.7159236,10.6615679 28.2936306,11.1166348 C27.8713376,11.5717017 27.2541401,11.7992352 26.4745223,11.7992352 C25.6949045,11.7992352 25.077707,11.5717017 24.6229299,11.1166348 C24.1681529,10.6615679 23.9732484,10.1089866 23.9732484,9.42638623 L23.9732484,8.80879541 L24.0057325,8.80879541 Z M25.5,9.42638623 C25.5,9.71892925 25.5974522,9.9789675 25.7598726,10.206501 C25.9547771,10.4340344 26.1821656,10.5315488 26.4745223,10.5315488 C26.7993631,10.5315488 27.0592357,10.4340344 27.189172,10.2390057 C27.3515924,10.0439771 27.4165605,9.78393881 27.4165605,9.45889101 L27.4165605,8.84130019 C27.4165605,8.54875717 27.3191083,8.28871893 27.1566879,8.06118547 C26.9942675,7.83365201 26.766879,7.73613767 26.4420382,7.73613767 C26.1171975,7.73613767 25.8898089,7.83365201 25.7273885,8.06118547 C25.5649682,8.28871893 25.4675159,8.51625239 25.4675159,8.84130019 L25.4675159,9.42638623 L25.5,9.42638623 Z" id="XMLID_871_"></path>
                    </g>
                </g>
            </g>
            <g id="439027_chart_pie_icon" transform="translate(123.000000, 121.000000)" fill-rule="nonzero">
                <circle id="Oval" fill="#2E2D78" cx="68" cy="68" r="68"></circle>
                <path d="M0,68.0655816 C0,91.2427739 11.4003533,111.703939 29.1310374,124 L67,67.0017245 L67,0 C30.7474736,0.434053725 0,30.7327059 0,68.0655816 Z" id="Path" fill="#F57178"></path>
                <path d="M68.2315,0 C67.9625395,0 68.0588994,0.0180088985 67,0.0211869394 L67,66.7388592 L132.263144,90 C134.673199,83.0422091 136,75.576991 136,67.7982062 C136.001059,30.3534688 105.659357,0 68.2315,0 Z" id="Path" fill="#3ECEDD"></path>
            </g>
            <polygon id="Path" fill="#0092BF" fill-rule="nonzero" points="471.642202 403.383333 471.642202 466.808333 496.205438 480.083333 496.205438 416.658333"></polygon>
            <polygon id="Path" fill="#56B9E9" fill-rule="nonzero" points="521.259939 403.383333 521.259939 466.808333 496.205438 480.083333 496.205438 416.658333"></polygon>
            <polygon id="Path" fill="#7BD3F7" fill-rule="nonzero" points="521.259939 403.383333 496.205438 416.658333 471.642202 403.383333 496.205438 389.616667"></polygon>
            <polygon id="Path" fill="#B4892D" fill-rule="nonzero" points="526.172586 436.816667 526.172586 498.766667 551.227087 512.041667 551.227087 450.091667"></polygon>
            <polygon id="Path" fill="#D1A62D" fill-rule="nonzero" points="575.790323 436.816667 575.790323 498.766667 551.227087 512.041667 551.227087 450.091667"></polygon>
            <polygon id="Path" fill="#EBC143" fill-rule="nonzero" points="575.790323 436.816667 551.227087 450.091667 526.172586 436.816667 551.227087 423.541667"></polygon>
            <polygon id="Path" fill="#D32939" fill-rule="nonzero" points="580.70297 407.808333 580.70297 530.725 605.757471 544 605.757471 421.575"></polygon>
            <polygon id="Path" fill="#E74E57" fill-rule="nonzero" points="630.811972 407.808333 630.811972 530.725 605.757471 544 605.757471 421.575"></polygon>
            <polygon id="Path" fill="#EF6572" fill-rule="nonzero" points="630.811972 407.808333 605.757471 421.575 580.70297 407.808333 605.757471 394.533333"></polygon>
            <path d="M563.01744,349.791667 C563.99997,349.791667 564.982499,349.3 564.982499,347.825 C564.982499,346.841667 564.491234,345.858333 563.99997,344.875 C563.508705,343.4 562.526176,342.416667 561.052381,341.925 C560.561117,341.433333 559.578587,341.433333 559.087322,341.433333 C558.596058,341.433333 558.104793,341.433333 557.613528,341.925 C557.122264,342.416667 557.122264,342.908333 557.122264,343.4 L559.087322,344.875 C559.087322,344.383333 559.087322,343.891667 559.578587,343.891667 C560.069852,343.891667 560.069852,343.891667 560.561117,343.891667 C561.052381,343.891667 561.543646,344.383333 561.543646,344.875 C562.034911,345.366667 562.034911,345.858333 562.034911,346.35 C562.034911,346.841667 562.034911,347.333333 561.543646,347.333333 C561.052381,347.333333 560.561117,347.333333 560.069852,346.841667 C560.069852,346.841667 560.069852,346.841667 560.069852,346.841667 L559.578587,348.808333 C560.069852,348.808333 560.561117,349.3 560.561117,349.3 C561.052381,349.791667 561.543646,349.791667 561.543646,350.775 C562.526176,351.266667 563.01744,352.25 563.01744,352.741667 C563.01744,353.233333 563.01744,353.725 562.526176,354.216667 C562.034911,354.216667 561.543646,354.216667 561.052381,354.216667 C560.561117,353.725 560.069852,353.725 560.069852,353.233333 C559.578587,352.741667 559.578587,352.25 559.578587,351.266667 L557.122264,350.283333 C557.122264,351.758333 557.613528,352.741667 558.596058,353.725 C559.578587,354.708333 560.069852,355.691667 561.543646,356.675 C562.526176,357.166667 563.508705,357.658333 564.491234,357.166667 C565.473764,356.675 565.473764,355.691667 565.473764,354.708333 C565.473764,353.725 565.473764,352.741667 564.982499,352.25 C564.491234,350.775 563.99997,350.283333 563.01744,349.791667 Z" id="Path" fill="#3D3D3D" fill-rule="nonzero"></path>
            <path d="M574.316529,355.691667 C573.825264,354.216667 572.842735,353.233333 571.860205,352.741667 C570.877676,352.25 570.386411,352.25 569.895146,352.25 L570.386411,349.791667 L574.807794,352.25 L574.807794,349.791667 L568.421352,346.35 L566.947558,353.233333 L568.912617,354.708333 C569.403882,354.216667 569.895146,354.216667 570.877676,354.708333 C571.368941,355.2 571.860205,355.691667 572.35147,356.183333 C572.842735,356.675 572.842735,357.166667 572.842735,358.15 C572.842735,359.133333 572.842735,359.625 572.35147,360.116667 C571.860205,360.608333 571.368941,360.608333 570.877676,360.116667 C570.386411,359.625 569.895146,359.625 569.895146,359.133333 C569.403882,358.641667 569.403882,358.15 569.403882,357.166667 L566.947558,356.183333 C566.947558,357.658333 567.438823,358.641667 568.421352,359.625 C568.912617,360.608333 569.895146,361.591667 571.368941,362.083333 C572.842735,363.066667 573.825264,363.066667 574.807794,362.083333 C575.299058,361.591667 575.790323,360.608333 575.790323,359.625 C575.299058,358.15 574.807794,356.675 574.316529,355.691667 Z" id="Path" fill="#3D3D3D" fill-rule="nonzero"></path>
            <path d="M509.052632,309.454545 L506.684211,308 L501,314.30303 L501,316.727273 L506.210526,319.636364 L506.210526,322.545455 L508.578947,324 L508.578947,321.090909 L510,322.060606 L510,319.636364 L508.578947,318.666667 L509.052632,309.454545 Z M507,317 L504,315.5 L507,312 L507,317 Z" id="Shape" fill="#3D3D3D" fill-rule="nonzero"></path>
            <path d="M519.786145,321.766667 C518.803615,320.291667 517.821086,319.308333 516.838556,318.816667 C516.347292,318.325 515.856027,318.325 514.873497,318.325 L515.364762,315.866667 L520.277409,318.816667 L520.277409,315.866667 L513.890968,311.933333 L512.417174,319.308333 L514.382233,320.783333 C514.873497,320.291667 515.856027,320.291667 516.347292,320.783333 C516.838556,321.275 517.329821,321.766667 517.821086,322.258333 C518.312351,322.75 518.312351,323.733333 518.312351,324.716667 C518.312351,325.7 518.312351,326.191667 517.821086,326.683333 C517.329821,327.175 516.838556,327.175 516.347292,326.683333 C515.856027,326.191667 515.364762,326.191667 514.873497,325.208333 C514.382233,324.716667 514.382233,323.733333 514.382233,323.241667 L511.925909,322.258333 C511.925909,323.733333 512.417174,324.716667 513.399703,326.191667 C514.382233,327.175 515.364762,328.158333 516.347292,329.141667 C517.821086,330.125 519.29488,330.125 519.786145,329.141667 C520.277409,328.65 520.768674,327.666667 520.768674,326.191667 C521.259939,324.716667 520.768674,323.241667 519.786145,321.766667 Z" id="Path" fill="#3D3D3D" fill-rule="nonzero"></path>
            <path d="M616.705882,318.076402 C615.764706,317.59029 615.294118,317.59029 614.352941,318.076402 C614.352941,316.618066 614.823529,315.645841 614.823529,315.159729 C615.294118,314.673617 615.764706,314.673617 616.235294,315.159729 C616.705882,315.159729 616.705882,315.645841 617.176471,316.131954 C617.176471,316.618066 617.647059,317.104178 617.647059,317.59029 L620,318.562514 C620,317.104178 619.529412,316.131954 619.058824,315.159729 C618.588235,314.187505 617.647059,313.21528 616.705882,312.729168 C615.294118,311.756944 614.352941,311.756944 613.411765,312.729168 C612.470588,313.21528 612,315.159729 612,317.59029 C612,320.020851 612.470588,322.451412 612.941176,323.909748 C613.882353,325.368085 614.823529,326.826421 615.764706,327.312534 C616.705882,327.798646 617.647059,328.284758 618.588235,327.798646 C619.529412,327.312534 619.529412,326.340309 619.529412,324.881973 C619.529412,323.423636 619.058824,321.9653 618.588235,320.993075 C618.588235,319.534739 617.647059,318.562514 616.705882,318.076402 Z M617.888889,325 C617.388889,325 617.388889,325 616.888889,325 C616.388889,324.545455 615.888889,324.090909 615.388889,323.636364 C614.888889,323.181818 614.888889,322.272727 614.888889,321.363636 C614.888889,320.454545 614.888889,320 615.388889,320 C615.888889,320 615.888889,320 616.388889,320 C616.888889,320.454545 617.388889,320.909091 617.388889,321.363636 C617.888889,321.818182 617.888889,322.727273 617.888889,323.636364 C618.388889,324.090909 617.888889,324.545455 617.888889,325 Z" id="Shape" fill="#3D3D3D" fill-rule="nonzero"></path>
            <path d="M628.846913,326.683333 C627.864384,325.208333 627.373119,324.225 625.899325,323.733333 C625.40806,323.241667 624.916795,323.241667 624.425531,323.241667 L624.916795,320.783333 L629.338178,323.241667 L629.338178,320.783333 L622.951736,316.85 L621.969207,324.225 L623.934266,325.7 C624.425531,325.208333 624.916795,325.208333 625.899325,325.7 C626.39059,326.191667 626.881854,326.683333 627.373119,327.175 C627.864384,327.666667 627.864384,328.65 627.864384,329.633333 C627.864384,330.616667 627.864384,331.108333 627.373119,331.6 C626.881854,332.091667 626.39059,332.091667 625.899325,331.6 C625.40806,331.108333 624.916795,331.108333 624.916795,330.125 C624.425531,329.633333 624.425531,329.141667 624.425531,328.158333 L621.969207,327.175 C621.969207,328.65 622.460472,329.633333 623.443001,331.108333 C623.934266,332.091667 624.916795,333.075 626.39059,334.058333 C627.864384,335.041667 628.846913,335.041667 629.829443,334.058333 C630.320707,333.566667 630.811972,332.583333 630.811972,331.6 C630.320707,329.633333 629.829443,328.158333 628.846913,326.683333 Z" id="Path" fill="#3D3D3D" fill-rule="nonzero"></path>
            <polygon id="Path" fill="#D32939" fill-rule="nonzero" opacity="0.3" points="580.963787 348.50165 580.963787 530.704142 605.88788 544 605.88788 362.289947"></polygon>
            <polygon id="Path" fill="#E74E57" fill-rule="nonzero" opacity="0.3" points="631.59085 348.50165 631.59085 530.704142 606.666758 544 606.666758 362.289947"></polygon>
            <polygon id="Path" fill="#EF6572" fill-rule="nonzero" opacity="0.3" points="630.811972 348.643264 605.88788 362.521452 580.963787 348.643264 605.88788 335.260726"></polygon>
            <polygon id="Path" fill="#B4892D" fill-rule="nonzero" opacity="0.3" points="526.442335 378.09901 526.442335 498.816523 551.366427 512.066007 551.366427 391.839215"></polygon>
            <polygon id="Path" fill="#D1A62D" fill-rule="nonzero" opacity="0.3" points="576.29052 378.09901 576.29052 498.816523 551.366427 512.066007 551.366427 391.839215"></polygon>
            <polygon id="Path" fill="#EBC143" fill-rule="nonzero" opacity="0.3" points="576.29052 377.461746 551.613201 391.339934 526.442335 377.461746 551.613201 364.079208"></polygon>
            <polygon id="Path" fill="#0092BF" fill-rule="nonzero" opacity="0.3" points="471.920883 344.607261 471.920883 466.874157 496.844975 480.132013 496.844975 357.865117"></polygon>
            <polygon id="Path" fill="#56B9E9" fill-rule="nonzero" opacity="0.3" points="521.769068 344.607261 521.769068 466.874157 496.844975 480.132013 496.844975 357.865117"></polygon>
            <polygon id="Path" fill="#7BD3F7" fill-rule="nonzero" opacity="0.3" points="521.769068 344.465647 496.598202 357.848185 471.920883 344.465647 496.598202 330.587459"></polygon>
        </g>
    </g>
</svg>